  0
SECTION
  2
BLOCKS
  0
ENDSEC
  0
SECTION
  2
ENTITIES
  0
LINE
  8
0
 10
0
 20
0
 11
6
 21
0
  0
LINE
  8
0
 10
6
 20
0
 11
6
 21
11.016
  0
LINE
  8
0
 10
6
 20
11.016
 11
0
 21
11.016
  0
LINE
  8
0
 10
0
 20
11.016
 11
0
 21
0
  0
LINE
  8
0
 10
0
 20
12.016
 11
5.499
 21
12.016
  0
LINE
  8
0
 10
5.499
 20
12.016
 11
5.499
 21
12.535
  0
LINE
  8
0
 10
5.499
 20
12.535
 11
11.501
 21
12.535
  0
LINE
  8
0
 10
11.501
 20
12.535
 11
11.501
 21
12.016
  0
LINE
  8
0
 10
11.501
 20
12.016
 11
17
 21
12.016
  0
LINE
  8
0
 10
17
 20
12.016
 11
17
 21
20.516
  0
LINE
  8
0
 10
17
 20
20.516
 11
11.501
 21
20.516
  0
LINE
  8
0
 10
11.501
 20
20.516
 11
11.501
 21
19.997
  0
LINE
  8
0
 10
11.501
 20
19.997
 11
5.499
 21
19.997
  0
LINE
  8
0
 10
5.499
 20
19.997
 11
5.499
 21
20.516
  0
LINE
  8
0
 10
5.499
 20
20.516
 11
0
 21
20.516
  0
LINE
  8
0
 10
0
 20
20.516
 11
0
 21
17.767
  0
LINE
  8
0
 10
0
 20
17.767
 11
0.497999
 21
17.767
  0
LINE
  8
0
 10
0.497999
 20
17.767
 11
0.497999
 21
14.765
  0
LINE
  8
0
 10
0.497999
 20
14.765
 11
0
 21
14.765
  0
LINE
  8
0
 10
0
 20
14.765
 11
0
 21
12.016
  0
LINE
  8
0
 10
7
 20
0
 11
13
 21
0
  0
LINE
  8
0
 10
13
 20
0
 11
13
 21
11.016
  0
LINE
  8
0
 10
13
 20
11.016
 11
10.25
 21
11.016
  0
LINE
  8
0
 10
10.25
 20
11.016
 11
10.25
 21
9.266
  0
LINE
  8
0
 10
10.25
 20
9.266
 11
10.2497
 21
9.25373
  0
LINE
  8
0
 10
10.2497
 20
9.25373
 11
10.2488
 21
9.2415
  0
LINE
  8
0
 10
10.2488
 20
9.2415
 11
10.2473
 21
9.22932
  0
LINE
  8
0
 10
10.2473
 20
9.22932
 11
10.2452
 21
9.21723
  0
LINE
  8
0
 10
10.2452
 20
9.21723
 11
10.2425
 21
9.20526
  0
LINE
  8
0
 10
10.2425
 20
9.20526
 11
10.2392
 21
9.19343
  0
LINE
  8
0
 10
10.2392
 20
9.19343
 11
10.2354
 21
9.18178
  0
LINE
  8
0
 10
10.2354
 20
9.18178
 11
10.231
 21
9.17033
  0
LINE
  8
0
 10
10.231
 20
9.17033
 11
10.226
 21
9.15911
  0
LINE
  8
0
 10
10.226
 20
9.15911
 11
10.2205
 21
9.14815
  0
LINE
  8
0
 10
10.2205
 20
9.14815
 11
10.2144
 21
9.13748
  0
LINE
  8
0
 10
10.2144
 20
9.13748
 11
10.2079
 21
9.12711
  0
LINE
  8
0
 10
10.2079
 20
9.12711
 11
10.2008
 21
9.11708
  0
LINE
  8
0
 10
10.2008
 20
9.11708
 11
10.1933
 21
9.1074
  0
LINE
  8
0
 10
10.1933
 20
9.1074
 11
10.1852
 21
9.09811
  0
LINE
  8
0
 10
10.1852
 20
9.09811
 11
10.1768
 21
9.08922
  0
LINE
  8
0
 10
10.1768
 20
9.08922
 11
10.1679
 21
9.08076
  0
LINE
  8
0
 10
10.1679
 20
9.08076
 11
10.1586
 21
9.07275
  0
LINE
  8
0
 10
10.1586
 20
9.07275
 11
10.1489
 21
9.0652
  0
LINE
  8
0
 10
10.1489
 20
9.0652
 11
10.1389
 21
9.05813
  0
LINE
  8
0
 10
10.1389
 20
9.05813
 11
10.1285
 21
9.05157
  0
LINE
  8
0
 10
10.1285
 20
9.05157
 11
10.1178
 21
9.04552
  0
LINE
  8
0
 10
10.1178
 20
9.04552
 11
10.1069
 21
9.04
  0
LINE
  8
0
 10
10.1069
 20
9.04
 11
10.0957
 21
9.03503
  0
LINE
  8
0
 10
10.0957
 20
9.03503
 11
10.0842
 21
9.03061
  0
LINE
  8
0
 10
10.0842
 20
9.03061
 11
10.0726
 21
9.02677
  0
LINE
  8
0
 10
10.0726
 20
9.02677
 11
10.0607
 21
9.02349
  0
LINE
  8
0
 10
10.0607
 20
9.02349
 11
10.0488
 21
9.0208
  0
LINE
  8
0
 10
10.0488
 20
9.0208
 11
10.0367
 21
9.01871
  0
LINE
  8
0
 10
10.0367
 20
9.01871
 11
10.0245
 21
9.0172
  0
LINE
  8
0
 10
10.0245
 20
9.0172
 11
10.0123
 21
9.0163
  0
LINE
  8
0
 10
10.0123
 20
9.0163
 11
10
 21
9.016
  0
LINE
  8
0
 10
10
 20
9.016
 11
9.98773
 21
9.0163
  0
LINE
  8
0
 10
9.98773
 20
9.0163
 11
9.9755
 21
9.0172
  0
LINE
  8
0
 10
9.9755
 20
9.0172
 11
9.96332
 21
9.01871
  0
LINE
  8
0
 10
9.96332
 20
9.01871
 11
9.95123
 21
9.0208
  0
LINE
  8
0
 10
9.95123
 20
9.0208
 11
9.93925
 21
9.02349
  0
LINE
  8
0
 10
9.93925
 20
9.02349
 11
9.92743
 21
9.02677
  0
LINE
  8
0
 10
9.92743
 20
9.02677
 11
9.91578
 21
9.03061
  0
LINE
  8
0
 10
9.91578
 20
9.03061
 11
9.90433
 21
9.03503
  0
LINE
  8
0
 10
9.90433
 20
9.03503
 11
9.89311
 21
9.04
  0
LINE
  8
0
 10
9.89311
 20
9.04
 11
9.88215
 21
9.04552
  0
LINE
  8
0
 10
9.88215
 20
9.04552
 11
9.87147
 21
9.05157
  0
LINE
  8
0
 10
9.87147
 20
9.05157
 11
9.86111
 21
9.05813
  0
LINE
  8
0
 10
9.86111
 20
9.05813
 11
9.85108
 21
9.0652
  0
LINE
  8
0
 10
9.85108
 20
9.0652
 11
9.8414
 21
9.07275
  0
LINE
  8
0
 10
9.8414
 20
9.07275
 11
9.83211
 21
9.08076
  0
LINE
  8
0
 10
9.83211
 20
9.08076
 11
9.82322
 21
9.08922
  0
LINE
  8
0
 10
9.82322
 20
9.08922
 11
9.81476
 21
9.09811
  0
LINE
  8
0
 10
9.81476
 20
9.09811
 11
9.80675
 21
9.1074
  0
LINE
  8
0
 10
9.80675
 20
9.1074
 11
9.7992
 21
9.11708
  0
LINE
  8
0
 10
9.7992
 20
9.11708
 11
9.79213
 21
9.12711
  0
LINE
  8
0
 10
9.79213
 20
9.12711
 11
9.78557
 21
9.13748
  0
LINE
  8
0
 10
9.78557
 20
9.13748
 11
9.77952
 21
9.14815
  0
LINE
  8
0
 10
9.77952
 20
9.14815
 11
9.774
 21
9.15911
  0
LINE
  8
0
 10
9.774
 20
9.15911
 11
9.76903
 21
9.17033
  0
LINE
  8
0
 10
9.76903
 20
9.17033
 11
9.76461
 21
9.18178
  0
LINE
  8
0
 10
9.76461
 20
9.18178
 11
9.76076
 21
9.19343
  0
LINE
  8
0
 10
9.76076
 20
9.19343
 11
9.75749
 21
9.20526
  0
LINE
  8
0
 10
9.75749
 20
9.20526
 11
9.7548
 21
9.21723
  0
LINE
  8
0
 10
9.7548
 20
9.21723
 11
9.75271
 21
9.22932
  0
LINE
  8
0
 10
9.75271
 20
9.22932
 11
9.7512
 21
9.2415
  0
LINE
  8
0
 10
9.7512
 20
9.2415
 11
9.7503
 21
9.25373
  0
LINE
  8
0
 10
9.7503
 20
9.25373
 11
9.75
 21
9.266
  0
LINE
  8
0
 10
9.75
 20
9.266
 11
9.75
 21
11.016
  0
LINE
  8
0
 10
9.75
 20
11.016
 11
7
 21
11.016
  0
LINE
  8
0
 10
7
 20
11.016
 11
7
 21
0
  0
LINE
  8
0
 10
14
 20
0
 11
17
 21
0
  0
LINE
  8
0
 10
17
 20
0
 11
17
 21
7.016
  0
LINE
  8
0
 10
17
 20
7.016
 11
14
 21
7.016
  0
LINE
  8
0
 10
14
 20
7.016
 11
14
 21
0
  0
LINE
  8
0
 10
15.375
 20
1.01
 11
15.375
 21
6.026
  0
LINE
  8
0
 10
15.375
 20
6.026
 11
15.375
 21
6.02907
  0
LINE
  8
0
 10
15.375
 20
6.02907
 11
15.3751
 21
6.03213
  0
LINE
  8
0
 10
15.3751
 20
6.03213
 11
15.3753
 21
6.0352
  0
LINE
  8
0
 10
15.3753
 20
6.0352
 11
15.3756
 21
6.03825
  0
LINE
  8
0
 10
15.3756
 20
6.03825
 11
15.3759
 21
6.0413
  0
LINE
  8
0
 10
15.3759
 20
6.0413
 11
15.3764
 21
6.04434
  0
LINE
  8
0
 10
15.3764
 20
6.04434
 11
15.3768
 21
6.04737
  0
LINE
  8
0
 10
15.3768
 20
6.04737
 11
15.3774
 21
6.05039
  0
LINE
  8
0
 10
15.3774
 20
6.05039
 11
15.378
 21
6.05339
  0
LINE
  8
0
 10
15.378
 20
6.05339
 11
15.3787
 21
6.05637
  0
LINE
  8
0
 10
15.3787
 20
6.05637
 11
15.3795
 21
6.05934
  0
LINE
  8
0
 10
15.3795
 20
6.05934
 11
15.3804
 21
6.06229
  0
LINE
  8
0
 10
15.3804
 20
6.06229
 11
15.3813
 21
6.06521
  0
LINE
  8
0
 10
15.3813
 20
6.06521
 11
15.3823
 21
6.06811
  0
LINE
  8
0
 10
15.3823
 20
6.06811
 11
15.3834
 21
6.07099
  0
LINE
  8
0
 10
15.3834
 20
6.07099
 11
15.3845
 21
6.07384
  0
LINE
  8
0
 10
15.3845
 20
6.07384
 11
15.3857
 21
6.07666
  0
LINE
  8
0
 10
15.3857
 20
6.07666
 11
15.387
 21
6.07944
  0
LINE
  8
0
 10
15.387
 20
6.07944
 11
15.3883
 21
6.0822
  0
LINE
  8
0
 10
15.3883
 20
6.0822
 11
15.3898
 21
6.08492
  0
LINE
  8
0
 10
15.3898
 20
6.08492
 11
15.3912
 21
6.08761
  0
LINE
  8
0
 10
15.3912
 20
6.08761
 11
15.3928
 21
6.09026
  0
LINE
  8
0
 10
15.3928
 20
6.09026
 11
15.3944
 21
6.09287
  0
LINE
  8
0
 10
15.3944
 20
6.09287
 11
15.3961
 21
6.09545
  0
LINE
  8
0
 10
15.3961
 20
6.09545
 11
15.3978
 21
6.09798
  0
LINE
  8
0
 10
15.3978
 20
6.09798
 11
15.3996
 21
6.10046
  0
LINE
  8
0
 10
15.3996
 20
6.10046
 11
15.4015
 21
6.1029
  0
LINE
  8
0
 10
15.4015
 20
6.1029
 11
15.4034
 21
6.1053
  0
LINE
  8
0
 10
15.4034
 20
6.1053
 11
15.4053
 21
6.10765
  0
LINE
  8
0
 10
15.4053
 20
6.10765
 11
15.4074
 21
6.10994
  0
LINE
  8
0
 10
15.4074
 20
6.10994
 11
15.4095
 21
6.11219
  0
LINE
  8
0
 10
15.4095
 20
6.11219
 11
15.4116
 21
6.11439
  0
LINE
  8
0
 10
15.4116
 20
6.11439
 11
15.4138
 21
6.11653
  0
LINE
  8
0
 10
15.4138
 20
6.11653
 11
15.4161
 21
6.11862
  0
LINE
  8
0
 10
15.4161
 20
6.11862
 11
15.4184
 21
6.12065
  0
LINE
  8
0
 10
15.4184
 20
6.12065
 11
15.4207
 21
6.12263
  0
LINE
  8
0
 10
15.4207
 20
6.12263
 11
15.4231
 21
6.12454
  0
LINE
  8
0
 10
15.4231
 20
6.12454
 11
15.4255
 21
6.1264
  0
LINE
  8
0
 10
15.4255
 20
6.1264
 11
15.428
 21
6.1282
  0
LINE
  8
0
 10
15.428
 20
6.1282
 11
15.4306
 21
6.12993
  0
LINE
  8
0
 10
15.4306
 20
6.12993
 11
15.4331
 21
6.13161
  0
LINE
  8
0
 10
15.4331
 20
6.13161
 11
15.4357
 21
6.13322
  0
LINE
  8
0
 10
15.4357
 20
6.13322
 11
15.4384
 21
6.13476
  0
LINE
  8
0
 10
15.4384
 20
6.13476
 11
15.4411
 21
6.13624
  0
LINE
  8
0
 10
15.4411
 20
6.13624
 11
15.4438
 21
6.13765
  0
LINE
  8
0
 10
15.4438
 20
6.13765
 11
15.4466
 21
6.139
  0
LINE
  8
0
 10
15.4466
 20
6.139
 11
15.4493
 21
6.14028
  0
LINE
  8
0
 10
15.4493
 20
6.14028
 11
15.4522
 21
6.14148
  0
LINE
  8
0
 10
15.4522
 20
6.14148
 11
15.455
 21
6.14262
  0
LINE
  8
0
 10
15.455
 20
6.14262
 11
15.4579
 21
6.14369
  0
LINE
  8
0
 10
15.4579
 20
6.14369
 11
15.4608
 21
6.14469
  0
LINE
  8
0
 10
15.4608
 20
6.14469
 11
15.4637
 21
6.14562
  0
LINE
  8
0
 10
15.4637
 20
6.14562
 11
15.4667
 21
6.14647
  0
LINE
  8
0
 10
15.4667
 20
6.14647
 11
15.4696
 21
6.14725
  0
LINE
  8
0
 10
15.4696
 20
6.14725
 11
15.4726
 21
6.14796
  0
LINE
  8
0
 10
15.4726
 20
6.14796
 11
15.4756
 21
6.1486
  0
LINE
  8
0
 10
15.4756
 20
6.1486
 11
15.4786
 21
6.14916
  0
LINE
  8
0
 10
15.4786
 20
6.14916
 11
15.4817
 21
6.14965
  0
LINE
  8
0
 10
15.4817
 20
6.14965
 11
15.4847
 21
6.15006
  0
LINE
  8
0
 10
15.4847
 20
6.15006
 11
15.4877
 21
6.1504
  0
LINE
  8
0
 10
15.4877
 20
6.1504
 11
15.4908
 21
6.15066
  0
LINE
  8
0
 10
15.4908
 20
6.15066
 11
15.4939
 21
6.15085
  0
LINE
  8
0
 10
15.4939
 20
6.15085
 11
15.4969
 21
6.15096
  0
LINE
  8
0
 10
15.4969
 20
6.15096
 11
15.5
 21
6.151
  0
LINE
  8
0
 10
15.5
 20
6.151
 11
15.5031
 21
6.15096
  0
LINE
  8
0
 10
15.5031
 20
6.15096
 11
15.5061
 21
6.15085
  0
LINE
  8
0
 10
15.5061
 20
6.15085
 11
15.5092
 21
6.15066
  0
LINE
  8
0
 10
15.5092
 20
6.15066
 11
15.5123
 21
6.1504
  0
LINE
  8
0
 10
15.5123
 20
6.1504
 11
15.5153
 21
6.15006
  0
LINE
  8
0
 10
15.5153
 20
6.15006
 11
15.5183
 21
6.14965
  0
LINE
  8
0
 10
15.5183
 20
6.14965
 11
15.5214
 21
6.14916
  0
LINE
  8
0
 10
15.5214
 20
6.14916
 11
15.5244
 21
6.1486
  0
LINE
  8
0
 10
15.5244
 20
6.1486
 11
15.5274
 21
6.14796
  0
LINE
  8
0
 10
15.5274
 20
6.14796
 11
15.5304
 21
6.14725
  0
LINE
  8
0
 10
15.5304
 20
6.14725
 11
15.5333
 21
6.14647
  0
LINE
  8
0
 10
15.5333
 20
6.14647
 11
15.5363
 21
6.14562
  0
LINE
  8
0
 10
15.5363
 20
6.14562
 11
15.5392
 21
6.14469
  0
LINE
  8
0
 10
15.5392
 20
6.14469
 11
15.5421
 21
6.14369
  0
LINE
  8
0
 10
15.5421
 20
6.14369
 11
15.545
 21
6.14262
  0
LINE
  8
0
 10
15.545
 20
6.14262
 11
15.5478
 21
6.14148
  0
LINE
  8
0
 10
15.5478
 20
6.14148
 11
15.5507
 21
6.14028
  0
LINE
  8
0
 10
15.5507
 20
6.14028
 11
15.5534
 21
6.139
  0
LINE
  8
0
 10
15.5534
 20
6.139
 11
15.5562
 21
6.13765
  0
LINE
  8
0
 10
15.5562
 20
6.13765
 11
15.5589
 21
6.13624
  0
LINE
  8
0
 10
15.5589
 20
6.13624
 11
15.5616
 21
6.13476
  0
LINE
  8
0
 10
15.5616
 20
6.13476
 11
15.5643
 21
6.13322
  0
LINE
  8
0
 10
15.5643
 20
6.13322
 11
15.5669
 21
6.13161
  0
LINE
  8
0
 10
15.5669
 20
6.13161
 11
15.5694
 21
6.12993
  0
LINE
  8
0
 10
15.5694
 20
6.12993
 11
15.572
 21
6.1282
  0
LINE
  8
0
 10
15.572
 20
6.1282
 11
15.5745
 21
6.1264
  0
LINE
  8
0
 10
15.5745
 20
6.1264
 11
15.5769
 21
6.12454
  0
LINE
  8
0
 10
15.5769
 20
6.12454
 11
15.5793
 21
6.12263
  0
LINE
  8
0
 10
15.5793
 20
6.12263
 11
15.5816
 21
6.12065
  0
LINE
  8
0
 10
15.5816
 20
6.12065
 11
15.5839
 21
6.11862
  0
LINE
  8
0
 10
15.5839
 20
6.11862
 11
15.5862
 21
6.11653
  0
LINE
  8
0
 10
15.5862
 20
6.11653
 11
15.5884
 21
6.11439
  0
LINE
  8
0
 10
15.5884
 20
6.11439
 11
15.5905
 21
6.11219
  0
LINE
  8
0
 10
15.5905
 20
6.11219
 11
15.5926
 21
6.10994
  0
LINE
  8
0
 10
15.5926
 20
6.10994
 11
15.5947
 21
6.10765
  0
LINE
  8
0
 10
15.5947
 20
6.10765
 11
15.5966
 21
6.1053
  0
LINE
  8
0
 10
15.5966
 20
6.1053
 11
15.5985
 21
6.1029
  0
LINE
  8
0
 10
15.5985
 20
6.1029
 11
15.6004
 21
6.10046
  0
LINE
  8
0
 10
15.6004
 20
6.10046
 11
15.6022
 21
6.09798
  0
LINE
  8
0
 10
15.6022
 20
6.09798
 11
15.6039
 21
6.09545
  0
LINE
  8
0
 10
15.6039
 20
6.09545
 11
15.6056
 21
6.09287
  0
LINE
  8
0
 10
15.6056
 20
6.09287
 11
15.6072
 21
6.09026
  0
LINE
  8
0
 10
15.6072
 20
6.09026
 11
15.6088
 21
6.08761
  0
LINE
  8
0
 10
15.6088
 20
6.08761
 11
15.6102
 21
6.08492
  0
LINE
  8
0
 10
15.6102
 20
6.08492
 11
15.6117
 21
6.0822
  0
LINE
  8
0
 10
15.6117
 20
6.0822
 11
15.613
 21
6.07944
  0
LINE
  8
0
 10
15.613
 20
6.07944
 11
15.6143
 21
6.07666
  0
LINE
  8
0
 10
15.6143
 20
6.07666
 11
15.6155
 21
6.07384
  0
LINE
  8
0
 10
15.6155
 20
6.07384
 11
15.6166
 21
6.07099
  0
LINE
  8
0
 10
15.6166
 20
6.07099
 11
15.6177
 21
6.06811
  0
LINE
  8
0
 10
15.6177
 20
6.06811
 11
15.6187
 21
6.06521
  0
LINE
  8
0
 10
15.6187
 20
6.06521
 11
15.6196
 21
6.06229
  0
LINE
  8
0
 10
15.6196
 20
6.06229
 11
15.6205
 21
6.05934
  0
LINE
  8
0
 10
15.6205
 20
6.05934
 11
15.6213
 21
6.05637
  0
LINE
  8
0
 10
15.6213
 20
6.05637
 11
15.622
 21
6.05339
  0
LINE
  8
0
 10
15.622
 20
6.05339
 11
15.6226
 21
6.05039
  0
LINE
  8
0
 10
15.6226
 20
6.05039
 11
15.6232
 21
6.04737
  0
LINE
  8
0
 10
15.6232
 20
6.04737
 11
15.6236
 21
6.04434
  0
LINE
  8
0
 10
15.6236
 20
6.04434
 11
15.6241
 21
6.0413
  0
LINE
  8
0
 10
15.6241
 20
6.0413
 11
15.6244
 21
6.03825
  0
LINE
  8
0
 10
15.6244
 20
6.03825
 11
15.6247
 21
6.0352
  0
LINE
  8
0
 10
15.6247
 20
6.0352
 11
15.6248
 21
6.03213
  0
LINE
  8
0
 10
15.6248
 20
6.03213
 11
15.625
 21
6.02907
  0
LINE
  8
0
 10
15.625
 20
6.02907
 11
15.625
 21
6.026
  0
LINE
  8
0
 10
15.625
 20
6.026
 11
15.625
 21
1.01
  0
LINE
  8
0
 10
15.625
 20
1.01
 11
15.625
 21
1.00693
  0
LINE
  8
0
 10
15.625
 20
1.00693
 11
15.6248
 21
1.00387
  0
LINE
  8
0
 10
15.6248
 20
1.00387
 11
15.6247
 21
1.0008
  0
LINE
  8
0
 10
15.6247
 20
1.0008
 11
15.6244
 21
0.997748
  0
LINE
  8
0
 10
15.6244
 20
0.997748
 11
15.6241
 21
0.994699
  0
LINE
  8
0
 10
15.6241
 20
0.994699
 11
15.6236
 21
0.991659
  0
LINE
  8
0
 10
15.6236
 20
0.991659
 11
15.6232
 21
0.98863
  0
LINE
  8
0
 10
15.6232
 20
0.98863
 11
15.6226
 21
0.985615
  0
LINE
  8
0
 10
15.6226
 20
0.985615
 11
15.622
 21
0.982612
  0
LINE
  8
0
 10
15.622
 20
0.982612
 11
15.6213
 21
0.979628
  0
LINE
  8
0
 10
15.6213
 20
0.979628
 11
15.6205
 21
0.976661
  0
LINE
  8
0
 10
15.6205
 20
0.976661
 11
15.6196
 21
0.973715
  0
LINE
  8
0
 10
15.6196
 20
0.973715
 11
15.6187
 21
0.970791
  0
LINE
  8
0
 10
15.6187
 20
0.970791
 11
15.6177
 21
0.96789
  0
LINE
  8
0
 10
15.6177
 20
0.96789
 11
15.6166
 21
0.965013
  0
LINE
  8
0
 10
15.6166
 20
0.965013
 11
15.6155
 21
0.962165
  0
LINE
  8
0
 10
15.6155
 20
0.962165
 11
15.6143
 21
0.959346
  0
LINE
  8
0
 10
15.6143
 20
0.959346
 11
15.613
 21
0.956556
  0
LINE
  8
0
 10
15.613
 20
0.956556
 11
15.6117
 21
0.953799
  0
LINE
  8
0
 10
15.6117
 20
0.953799
 11
15.6102
 21
0.951076
  0
LINE
  8
0
 10
15.6102
 20
0.951076
 11
15.6088
 21
0.948388
  0
LINE
  8
0
 10
15.6088
 20
0.948388
 11
15.6072
 21
0.945738
  0
LINE
  8
0
 10
15.6072
 20
0.945738
 11
15.6056
 21
0.943125
  0
LINE
  8
0
 10
15.6056
 20
0.943125
 11
15.6039
 21
0.940554
  0
LINE
  8
0
 10
15.6039
 20
0.940554
 11
15.6022
 21
0.938024
  0
LINE
  8
0
 10
15.6022
 20
0.938024
 11
15.6004
 21
0.935538
  0
LINE
  8
0
 10
15.6004
 20
0.935538
 11
15.5985
 21
0.933097
  0
LINE
  8
0
 10
15.5985
 20
0.933097
 11
15.5966
 21
0.930701
  0
LINE
  8
0
 10
15.5966
 20
0.930701
 11
15.5947
 21
0.928354
  0
LINE
  8
0
 10
15.5947
 20
0.928354
 11
15.5926
 21
0.926056
  0
LINE
  8
0
 10
15.5926
 20
0.926056
 11
15.5905
 21
0.923808
  0
LINE
  8
0
 10
15.5905
 20
0.923808
 11
15.5884
 21
0.921613
  0
LINE
  8
0
 10
15.5884
 20
0.921613
 11
15.5862
 21
0.91947
  0
LINE
  8
0
 10
15.5862
 20
0.91947
 11
15.5839
 21
0.917382
  0
LINE
  8
0
 10
15.5839
 20
0.917382
 11
15.5816
 21
0.91535
  0
LINE
  8
0
 10
15.5816
 20
0.91535
 11
15.5793
 21
0.913374
  0
LINE
  8
0
 10
15.5793
 20
0.913374
 11
15.5769
 21
0.911457
  0
LINE
  8
0
 10
15.5769
 20
0.911457
 11
15.5745
 21
0.909599
  0
LINE
  8
0
 10
15.5745
 20
0.909599
 11
15.572
 21
0.907802
  0
LINE
  8
0
 10
15.572
 20
0.907802
 11
15.5694
 21
0.906067
  0
LINE
  8
0
 10
15.5694
 20
0.906067
 11
15.5669
 21
0.904394
  0
LINE
  8
0
 10
15.5669
 20
0.904394
 11
15.5643
 21
0.902784
  0
LINE
  8
0
 10
15.5643
 20
0.902784
 11
15.5616
 21
0.901239
  0
LINE
  8
0
 10
15.5616
 20
0.901239
 11
15.5589
 21
0.89976
  0
LINE
  8
0
 10
15.5589
 20
0.89976
 11
15.5562
 21
0.898348
  0
LINE
  8
0
 10
15.5562
 20
0.898348
 11
15.5534
 21
0.897002
  0
LINE
  8
0
 10
15.5534
 20
0.897002
 11
15.5507
 21
0.895724
  0
LINE
  8
0
 10
15.5507
 20
0.895724
 11
15.5478
 21
0.894516
  0
LINE
  8
0
 10
15.5478
 20
0.894516
 11
15.545
 21
0.893376
  0
LINE
  8
0
 10
15.545
 20
0.893376
 11
15.5421
 21
0.892307
  0
LINE
  8
0
 10
15.5421
 20
0.892307
 11
15.5392
 21
0.89131
  0
LINE
  8
0
 10
15.5392
 20
0.89131
 11
15.5363
 21
0.890383
  0
LINE
  8
0
 10
15.5363
 20
0.890383
 11
15.5333
 21
0.889528
  0
LINE
  8
0
 10
15.5333
 20
0.889528
 11
15.5304
 21
0.888747
  0
LINE
  8
0
 10
15.5304
 20
0.888747
 11
15.5274
 21
0.888037
  0
LINE
  8
0
 10
15.5274
 20
0.888037
 11
15.5244
 21
0.887402
  0
LINE
  8
0
 10
15.5244
 20
0.887402
 11
15.5214
 21
0.886841
  0
LINE
  8
0
 10
15.5214
 20
0.886841
 11
15.5183
 21
0.886353
  0
LINE
  8
0
 10
15.5183
 20
0.886353
 11
15.5153
 21
0.88594
  0
LINE
  8
0
 10
15.5153
 20
0.88594
 11
15.5123
 21
0.885603
  0
LINE
  8
0
 10
15.5123
 20
0.885603
 11
15.5092
 21
0.88534
  0
LINE
  8
0
 10
15.5092
 20
0.88534
 11
15.5061
 21
0.885151
  0
LINE
  8
0
 10
15.5061
 20
0.885151
 11
15.5031
 21
0.885038
  0
LINE
  8
0
 10
15.5031
 20
0.885038
 11
15.5
 21
0.885
  0
LINE
  8
0
 10
15.5
 20
0.885
 11
15.4969
 21
0.885038
  0
LINE
  8
0
 10
15.4969
 20
0.885038
 11
15.4939
 21
0.885151
  0
LINE
  8
0
 10
15.4939
 20
0.885151
 11
15.4908
 21
0.88534
  0
LINE
  8
0
 10
15.4908
 20
0.88534
 11
15.4877
 21
0.885603
  0
LINE
  8
0
 10
15.4877
 20
0.885603
 11
15.4847
 21
0.88594
  0
LINE
  8
0
 10
15.4847
 20
0.88594
 11
15.4817
 21
0.886353
  0
LINE
  8
0
 10
15.4817
 20
0.886353
 11
15.4786
 21
0.886841
  0
LINE
  8
0
 10
15.4786
 20
0.886841
 11
15.4756
 21
0.887402
  0
LINE
  8
0
 10
15.4756
 20
0.887402
 11
15.4726
 21
0.888037
  0
LINE
  8
0
 10
15.4726
 20
0.888037
 11
15.4696
 21
0.888747
  0
LINE
  8
0
 10
15.4696
 20
0.888747
 11
15.4667
 21
0.889528
  0
LINE
  8
0
 10
15.4667
 20
0.889528
 11
15.4637
 21
0.890383
  0
LINE
  8
0
 10
15.4637
 20
0.890383
 11
15.4608
 21
0.89131
  0
LINE
  8
0
 10
15.4608
 20
0.89131
 11
15.4579
 21
0.892307
  0
LINE
  8
0
 10
15.4579
 20
0.892307
 11
15.455
 21
0.893376
  0
LINE
  8
0
 10
15.455
 20
0.893376
 11
15.4522
 21
0.894516
  0
LINE
  8
0
 10
15.4522
 20
0.894516
 11
15.4493
 21
0.895724
  0
LINE
  8
0
 10
15.4493
 20
0.895724
 11
15.4466
 21
0.897002
  0
LINE
  8
0
 10
15.4466
 20
0.897002
 11
15.4438
 21
0.898348
  0
LINE
  8
0
 10
15.4438
 20
0.898348
 11
15.4411
 21
0.89976
  0
LINE
  8
0
 10
15.4411
 20
0.89976
 11
15.4384
 21
0.901239
  0
LINE
  8
0
 10
15.4384
 20
0.901239
 11
15.4357
 21
0.902784
  0
LINE
  8
0
 10
15.4357
 20
0.902784
 11
15.4331
 21
0.904394
  0
LINE
  8
0
 10
15.4331
 20
0.904394
 11
15.4306
 21
0.906067
  0
LINE
  8
0
 10
15.4306
 20
0.906067
 11
15.428
 21
0.907802
  0
LINE
  8
0
 10
15.428
 20
0.907802
 11
15.4255
 21
0.909599
  0
LINE
  8
0
 10
15.4255
 20
0.909599
 11
15.4231
 21
0.911457
  0
LINE
  8
0
 10
15.4231
 20
0.911457
 11
15.4207
 21
0.913374
  0
LINE
  8
0
 10
15.4207
 20
0.913374
 11
15.4184
 21
0.91535
  0
LINE
  8
0
 10
15.4184
 20
0.91535
 11
15.4161
 21
0.917382
  0
LINE
  8
0
 10
15.4161
 20
0.917382
 11
15.4138
 21
0.91947
  0
LINE
  8
0
 10
15.4138
 20
0.91947
 11
15.4116
 21
0.921613
  0
LINE
  8
0
 10
15.4116
 20
0.921613
 11
15.4095
 21
0.923808
  0
LINE
  8
0
 10
15.4095
 20
0.923808
 11
15.4074
 21
0.926056
  0
LINE
  8
0
 10
15.4074
 20
0.926056
 11
15.4053
 21
0.928354
  0
LINE
  8
0
 10
15.4053
 20
0.928354
 11
15.4034
 21
0.930701
  0
LINE
  8
0
 10
15.4034
 20
0.930701
 11
15.4015
 21
0.933097
  0
LINE
  8
0
 10
15.4015
 20
0.933097
 11
15.3996
 21
0.935538
  0
LINE
  8
0
 10
15.3996
 20
0.935538
 11
15.3978
 21
0.938024
  0
LINE
  8
0
 10
15.3978
 20
0.938024
 11
15.3961
 21
0.940554
  0
LINE
  8
0
 10
15.3961
 20
0.940554
 11
15.3944
 21
0.943125
  0
LINE
  8
0
 10
15.3944
 20
0.943125
 11
15.3928
 21
0.945738
  0
LINE
  8
0
 10
15.3928
 20
0.945738
 11
15.3912
 21
0.948388
  0
LINE
  8
0
 10
15.3912
 20
0.948388
 11
15.3898
 21
0.951076
  0
LINE
  8
0
 10
15.3898
 20
0.951076
 11
15.3883
 21
0.953799
  0
LINE
  8
0
 10
15.3883
 20
0.953799
 11
15.387
 21
0.956556
  0
LINE
  8
0
 10
15.387
 20
0.956556
 11
15.3857
 21
0.959346
  0
LINE
  8
0
 10
15.3857
 20
0.959346
 11
15.3845
 21
0.962165
  0
LINE
  8
0
 10
15.3845
 20
0.962165
 11
15.3834
 21
0.965013
  0
LINE
  8
0
 10
15.3834
 20
0.965013
 11
15.3823
 21
0.96789
  0
LINE
  8
0
 10
15.3823
 20
0.96789
 11
15.3813
 21
0.970791
  0
LINE
  8
0
 10
15.3813
 20
0.970791
 11
15.3804
 21
0.973715
  0
LINE
  8
0
 10
15.3804
 20
0.973715
 11
15.3795
 21
0.976661
  0
LINE
  8
0
 10
15.3795
 20
0.976661
 11
15.3787
 21
0.979628
  0
LINE
  8
0
 10
15.3787
 20
0.979628
 11
15.378
 21
0.982612
  0
LINE
  8
0
 10
15.378
 20
0.982612
 11
15.3774
 21
0.985615
  0
LINE
  8
0
 10
15.3774
 20
0.985615
 11
15.3768
 21
0.98863
  0
LINE
  8
0
 10
15.3768
 20
0.98863
 11
15.3764
 21
0.991659
  0
LINE
  8
0
 10
15.3764
 20
0.991659
 11
15.3759
 21
0.994699
  0
LINE
  8
0
 10
15.3759
 20
0.994699
 11
15.3756
 21
0.997748
  0
LINE
  8
0
 10
15.3756
 20
0.997748
 11
15.3753
 21
1.0008
  0
LINE
  8
0
 10
15.3753
 20
1.0008
 11
15.3751
 21
1.00387
  0
LINE
  8
0
 10
15.3751
 20
1.00387
 11
15.375
 21
1.00693
  0
LINE
  8
0
 10
15.375
 20
1.00693
 11
15.375
 21
1.01
  0
ENDSEC
  0
SECTION
  2
OBJECTS
  0
DICTIONARY
  0
ENDSEC
  0
EOF
