  0
SECTION
  2
BLOCKS
  0
ENDSEC
  0
SECTION
  2
ENTITIES
  0
LINE
  8
0
 10
0
 20
0
 11
6
 21
0
  0
LINE
  8
0
 10
6
 20
0
 11
6
 21
11
  0
LINE
  8
0
 10
6
 20
11
 11
3.25
 21
11
  0
LINE
  8
0
 10
3.25
 20
11
 11
3.25
 21
9.25
  0
LINE
  8
0
 10
3.25
 20
9.25
 11
3.2497
 21
9.23773
  0
LINE
  8
0
 10
3.2497
 20
9.23773
 11
3.2488
 21
9.2255
  0
LINE
  8
0
 10
3.2488
 20
9.2255
 11
3.24729
 21
9.21332
  0
LINE
  8
0
 10
3.24729
 20
9.21332
 11
3.2452
 21
9.20123
  0
LINE
  8
0
 10
3.2452
 20
9.20123
 11
3.24251
 21
9.18926
  0
LINE
  8
0
 10
3.24251
 20
9.18926
 11
3.23923
 21
9.17743
  0
LINE
  8
0
 10
3.23923
 20
9.17743
 11
3.23539
 21
9.16578
  0
LINE
  8
0
 10
3.23539
 20
9.16578
 11
3.23097
 21
9.15433
  0
LINE
  8
0
 10
3.23097
 20
9.15433
 11
3.226
 21
9.14311
  0
LINE
  8
0
 10
3.226
 20
9.14311
 11
3.22048
 21
9.13215
  0
LINE
  8
0
 10
3.22048
 20
9.13215
 11
3.21443
 21
9.12148
  0
LINE
  8
0
 10
3.21443
 20
9.12148
 11
3.20787
 21
9.11111
  0
LINE
  8
0
 10
3.20787
 20
9.11111
 11
3.2008
 21
9.10108
  0
LINE
  8
0
 10
3.2008
 20
9.10108
 11
3.19325
 21
9.0914
  0
LINE
  8
0
 10
3.19325
 20
9.0914
 11
3.18524
 21
9.08211
  0
LINE
  8
0
 10
3.18524
 20
9.08211
 11
3.17678
 21
9.07322
  0
LINE
  8
0
 10
3.17678
 20
9.07322
 11
3.16789
 21
9.06476
  0
LINE
  8
0
 10
3.16789
 20
9.06476
 11
3.1586
 21
9.05675
  0
LINE
  8
0
 10
3.1586
 20
9.05675
 11
3.14892
 21
9.0492
  0
LINE
  8
0
 10
3.14892
 20
9.0492
 11
3.13889
 21
9.04213
  0
LINE
  8
0
 10
3.13889
 20
9.04213
 11
3.12852
 21
9.03557
  0
LINE
  8
0
 10
3.12852
 20
9.03557
 11
3.11785
 21
9.02952
  0
LINE
  8
0
 10
3.11785
 20
9.02952
 11
3.10689
 21
9.024
  0
LINE
  8
0
 10
3.10689
 20
9.024
 11
3.09567
 21
9.01903
  0
LINE
  8
0
 10
3.09567
 20
9.01903
 11
3.08422
 21
9.01461
  0
LINE
  8
0
 10
3.08422
 20
9.01461
 11
3.07257
 21
9.01077
  0
LINE
  8
0
 10
3.07257
 20
9.01077
 11
3.06074
 21
9.00749
  0
LINE
  8
0
 10
3.06074
 20
9.00749
 11
3.04877
 21
9.0048
  0
LINE
  8
0
 10
3.04877
 20
9.0048
 11
3.03668
 21
9.00271
  0
LINE
  8
0
 10
3.03668
 20
9.00271
 11
3.0245
 21
9.0012
  0
LINE
  8
0
 10
3.0245
 20
9.0012
 11
3.01227
 21
9.0003
  0
LINE
  8
0
 10
3.01227
 20
9.0003
 11
3
 21
9
  0
LINE
  8
0
 10
3
 20
9
 11
2.98773
 21
9.0003
  0
LINE
  8
0
 10
2.98773
 20
9.0003
 11
2.9755
 21
9.0012
  0
LINE
  8
0
 10
2.9755
 20
9.0012
 11
2.96332
 21
9.00271
  0
LINE
  8
0
 10
2.96332
 20
9.00271
 11
2.95123
 21
9.0048
  0
LINE
  8
0
 10
2.95123
 20
9.0048
 11
2.93925
 21
9.00749
  0
LINE
  8
0
 10
2.93925
 20
9.00749
 11
2.92743
 21
9.01077
  0
LINE
  8
0
 10
2.92743
 20
9.01077
 11
2.91578
 21
9.01461
  0
LINE
  8
0
 10
2.91578
 20
9.01461
 11
2.90433
 21
9.01903
  0
LINE
  8
0
 10
2.90433
 20
9.01903
 11
2.89311
 21
9.024
  0
LINE
  8
0
 10
2.89311
 20
9.024
 11
2.88215
 21
9.02952
  0
LINE
  8
0
 10
2.88215
 20
9.02952
 11
2.87147
 21
9.03557
  0
LINE
  8
0
 10
2.87147
 20
9.03557
 11
2.86111
 21
9.04213
  0
LINE
  8
0
 10
2.86111
 20
9.04213
 11
2.85108
 21
9.0492
  0
LINE
  8
0
 10
2.85108
 20
9.0492
 11
2.8414
 21
9.05675
  0
LINE
  8
0
 10
2.8414
 20
9.05675
 11
2.83211
 21
9.06476
  0
LINE
  8
0
 10
2.83211
 20
9.06476
 11
2.82322
 21
9.07322
  0
LINE
  8
0
 10
2.82322
 20
9.07322
 11
2.81476
 21
9.08211
  0
LINE
  8
0
 10
2.81476
 20
9.08211
 11
2.80675
 21
9.0914
  0
LINE
  8
0
 10
2.80675
 20
9.0914
 11
2.7992
 21
9.10108
  0
LINE
  8
0
 10
2.7992
 20
9.10108
 11
2.79213
 21
9.11111
  0
LINE
  8
0
 10
2.79213
 20
9.11111
 11
2.78557
 21
9.12148
  0
LINE
  8
0
 10
2.78557
 20
9.12148
 11
2.77952
 21
9.13215
  0
LINE
  8
0
 10
2.77952
 20
9.13215
 11
2.774
 21
9.14311
  0
LINE
  8
0
 10
2.774
 20
9.14311
 11
2.76903
 21
9.15433
  0
LINE
  8
0
 10
2.76903
 20
9.15433
 11
2.76461
 21
9.16578
  0
LINE
  8
0
 10
2.76461
 20
9.16578
 11
2.76076
 21
9.17743
  0
LINE
  8
0
 10
2.76076
 20
9.17743
 11
2.75749
 21
9.18926
  0
LINE
  8
0
 10
2.75749
 20
9.18926
 11
2.7548
 21
9.20123
  0
LINE
  8
0
 10
2.7548
 20
9.20123
 11
2.75271
 21
9.21332
  0
LINE
  8
0
 10
2.75271
 20
9.21332
 11
2.7512
 21
9.2255
  0
LINE
  8
0
 10
2.7512
 20
9.2255
 11
2.7503
 21
9.23773
  0
LINE
  8
0
 10
2.7503
 20
9.23773
 11
2.75
 21
9.25
  0
LINE
  8
0
 10
2.75
 20
9.25
 11
2.75
 21
11
  0
LINE
  8
0
 10
2.75
 20
11
 11
0
 21
11
  0
LINE
  8
0
 10
0
 20
11
 11
0
 21
0
  0
LINE
  8
0
 10
0
 20
12
 11
5.46875
 21
12
  0
LINE
  8
0
 10
5.46875
 20
12
 11
5.46875
 21
12.5412
  0
LINE
  8
0
 10
5.46875
 20
12.5412
 11
11.5312
 21
12.5412
  0
LINE
  8
0
 10
11.5312
 20
12.5412
 11
11.5312
 21
12
  0
LINE
  8
0
 10
11.5312
 20
12
 11
17
 21
12
  0
LINE
  8
0
 10
17
 20
12
 11
17
 21
20.5
  0
LINE
  8
0
 10
17
 20
20.5
 11
11.5312
 21
20.5
  0
LINE
  8
0
 10
11.5312
 20
20.5
 11
11.5312
 21
19.9587
  0
LINE
  8
0
 10
11.5312
 20
19.9587
 11
5.46875
 21
19.9587
  0
LINE
  8
0
 10
5.46875
 20
19.9587
 11
5.46875
 21
20.5
  0
LINE
  8
0
 10
5.46875
 20
20.5
 11
0
 21
20.5
  0
LINE
  8
0
 10
0
 20
20.5
 11
0
 21
17.7812
  0
LINE
  8
0
 10
0
 20
17.7812
 11
0.49
 21
17.7812
  0
LINE
  8
0
 10
0.49
 20
17.7812
 11
0.49
 21
14.7188
  0
LINE
  8
0
 10
0.49
 20
14.7188
 11
0
 21
14.7188
  0
LINE
  8
0
 10
0
 20
14.7188
 11
0
 21
12
  0
LINE
  8
0
 10
0
 20
21.5
 11
5.46875
 21
21.5
  0
LINE
  8
0
 10
5.46875
 20
21.5
 11
5.46875
 21
22.0412
  0
LINE
  8
0
 10
5.46875
 20
22.0412
 11
11.5312
 21
22.0412
  0
LINE
  8
0
 10
11.5312
 20
22.0412
 11
11.5312
 21
21.5
  0
LINE
  8
0
 10
11.5312
 20
21.5
 11
17
 21
21.5
  0
LINE
  8
0
 10
17
 20
21.5
 11
17
 21
30
  0
LINE
  8
0
 10
17
 20
30
 11
11.5312
 21
30
  0
LINE
  8
0
 10
11.5312
 20
30
 11
11.5312
 21
29.4587
  0
LINE
  8
0
 10
11.5312
 20
29.4587
 11
5.46875
 21
29.4587
  0
LINE
  8
0
 10
5.46875
 20
29.4587
 11
5.46875
 21
30
  0
LINE
  8
0
 10
5.46875
 20
30
 11
0
 21
30
  0
LINE
  8
0
 10
0
 20
30
 11
0
 21
27.2812
  0
LINE
  8
0
 10
0
 20
27.2812
 11
0.49
 21
27.2812
  0
LINE
  8
0
 10
0.49
 20
27.2812
 11
0.49
 21
24.2188
  0
LINE
  8
0
 10
0.49
 20
24.2188
 11
0
 21
24.2188
  0
LINE
  8
0
 10
0
 20
24.2188
 11
0
 21
21.5
  0
LINE
  8
0
 10
7
 20
0
 11
13
 21
0
  0
LINE
  8
0
 10
13
 20
0
 11
13
 21
11
  0
LINE
  8
0
 10
13
 20
11
 11
10.25
 21
11
  0
LINE
  8
0
 10
10.25
 20
11
 11
10.25
 21
9.25
  0
LINE
  8
0
 10
10.25
 20
9.25
 11
10.2497
 21
9.23773
  0
LINE
  8
0
 10
10.2497
 20
9.23773
 11
10.2488
 21
9.2255
  0
LINE
  8
0
 10
10.2488
 20
9.2255
 11
10.2473
 21
9.21332
  0
LINE
  8
0
 10
10.2473
 20
9.21332
 11
10.2452
 21
9.20123
  0
LINE
  8
0
 10
10.2452
 20
9.20123
 11
10.2425
 21
9.18926
  0
LINE
  8
0
 10
10.2425
 20
9.18926
 11
10.2392
 21
9.17743
  0
LINE
  8
0
 10
10.2392
 20
9.17743
 11
10.2354
 21
9.16578
  0
LINE
  8
0
 10
10.2354
 20
9.16578
 11
10.231
 21
9.15433
  0
LINE
  8
0
 10
10.231
 20
9.15433
 11
10.226
 21
9.14311
  0
LINE
  8
0
 10
10.226
 20
9.14311
 11
10.2205
 21
9.13215
  0
LINE
  8
0
 10
10.2205
 20
9.13215
 11
10.2144
 21
9.12148
  0
LINE
  8
0
 10
10.2144
 20
9.12148
 11
10.2079
 21
9.11111
  0
LINE
  8
0
 10
10.2079
 20
9.11111
 11
10.2008
 21
9.10108
  0
LINE
  8
0
 10
10.2008
 20
9.10108
 11
10.1933
 21
9.0914
  0
LINE
  8
0
 10
10.1933
 20
9.0914
 11
10.1852
 21
9.08211
  0
LINE
  8
0
 10
10.1852
 20
9.08211
 11
10.1768
 21
9.07322
  0
LINE
  8
0
 10
10.1768
 20
9.07322
 11
10.1679
 21
9.06476
  0
LINE
  8
0
 10
10.1679
 20
9.06476
 11
10.1586
 21
9.05675
  0
LINE
  8
0
 10
10.1586
 20
9.05675
 11
10.1489
 21
9.0492
  0
LINE
  8
0
 10
10.1489
 20
9.0492
 11
10.1389
 21
9.04213
  0
LINE
  8
0
 10
10.1389
 20
9.04213
 11
10.1285
 21
9.03557
  0
LINE
  8
0
 10
10.1285
 20
9.03557
 11
10.1178
 21
9.02952
  0
LINE
  8
0
 10
10.1178
 20
9.02952
 11
10.1069
 21
9.024
  0
LINE
  8
0
 10
10.1069
 20
9.024
 11
10.0957
 21
9.01903
  0
LINE
  8
0
 10
10.0957
 20
9.01903
 11
10.0842
 21
9.01461
  0
LINE
  8
0
 10
10.0842
 20
9.01461
 11
10.0726
 21
9.01077
  0
LINE
  8
0
 10
10.0726
 20
9.01077
 11
10.0607
 21
9.00749
  0
LINE
  8
0
 10
10.0607
 20
9.00749
 11
10.0488
 21
9.0048
  0
LINE
  8
0
 10
10.0488
 20
9.0048
 11
10.0367
 21
9.00271
  0
LINE
  8
0
 10
10.0367
 20
9.00271
 11
10.0245
 21
9.0012
  0
LINE
  8
0
 10
10.0245
 20
9.0012
 11
10.0123
 21
9.0003
  0
LINE
  8
0
 10
10.0123
 20
9.0003
 11
10
 21
9
  0
LINE
  8
0
 10
10
 20
9
 11
9.98773
 21
9.0003
  0
LINE
  8
0
 10
9.98773
 20
9.0003
 11
9.9755
 21
9.0012
  0
LINE
  8
0
 10
9.9755
 20
9.0012
 11
9.96332
 21
9.00271
  0
LINE
  8
0
 10
9.96332
 20
9.00271
 11
9.95123
 21
9.0048
  0
LINE
  8
0
 10
9.95123
 20
9.0048
 11
9.93925
 21
9.00749
  0
LINE
  8
0
 10
9.93925
 20
9.00749
 11
9.92743
 21
9.01077
  0
LINE
  8
0
 10
9.92743
 20
9.01077
 11
9.91578
 21
9.01461
  0
LINE
  8
0
 10
9.91578
 20
9.01461
 11
9.90433
 21
9.01903
  0
LINE
  8
0
 10
9.90433
 20
9.01903
 11
9.89311
 21
9.024
  0
LINE
  8
0
 10
9.89311
 20
9.024
 11
9.88215
 21
9.02952
  0
LINE
  8
0
 10
9.88215
 20
9.02952
 11
9.87147
 21
9.03557
  0
LINE
  8
0
 10
9.87147
 20
9.03557
 11
9.86111
 21
9.04213
  0
LINE
  8
0
 10
9.86111
 20
9.04213
 11
9.85108
 21
9.0492
  0
LINE
  8
0
 10
9.85108
 20
9.0492
 11
9.8414
 21
9.05675
  0
LINE
  8
0
 10
9.8414
 20
9.05675
 11
9.83211
 21
9.06476
  0
LINE
  8
0
 10
9.83211
 20
9.06476
 11
9.82322
 21
9.07322
  0
LINE
  8
0
 10
9.82322
 20
9.07322
 11
9.81476
 21
9.08211
  0
LINE
  8
0
 10
9.81476
 20
9.08211
 11
9.80675
 21
9.0914
  0
LINE
  8
0
 10
9.80675
 20
9.0914
 11
9.7992
 21
9.10108
  0
LINE
  8
0
 10
9.7992
 20
9.10108
 11
9.79213
 21
9.11111
  0
LINE
  8
0
 10
9.79213
 20
9.11111
 11
9.78557
 21
9.12148
  0
LINE
  8
0
 10
9.78557
 20
9.12148
 11
9.77952
 21
9.13215
  0
LINE
  8
0
 10
9.77952
 20
9.13215
 11
9.774
 21
9.14311
  0
LINE
  8
0
 10
9.774
 20
9.14311
 11
9.76903
 21
9.15433
  0
LINE
  8
0
 10
9.76903
 20
9.15433
 11
9.76461
 21
9.16578
  0
LINE
  8
0
 10
9.76461
 20
9.16578
 11
9.76076
 21
9.17743
  0
LINE
  8
0
 10
9.76076
 20
9.17743
 11
9.75749
 21
9.18926
  0
LINE
  8
0
 10
9.75749
 20
9.18926
 11
9.7548
 21
9.20123
  0
LINE
  8
0
 10
9.7548
 20
9.20123
 11
9.75271
 21
9.21332
  0
LINE
  8
0
 10
9.75271
 20
9.21332
 11
9.7512
 21
9.2255
  0
LINE
  8
0
 10
9.7512
 20
9.2255
 11
9.7503
 21
9.23773
  0
LINE
  8
0
 10
9.7503
 20
9.23773
 11
9.75
 21
9.25
  0
LINE
  8
0
 10
9.75
 20
9.25
 11
9.75
 21
11
  0
LINE
  8
0
 10
9.75
 20
11
 11
7
 21
11
  0
LINE
  8
0
 10
7
 20
11
 11
7
 21
0
  0
LINE
  8
0
 10
14
 20
0
 11
17
 21
0
  0
LINE
  8
0
 10
17
 20
0
 11
17
 21
5
  0
LINE
  8
0
 10
17
 20
5
 11
15.625
 21
5
  0
LINE
  8
0
 10
15.625
 20
5
 11
15.625
 21
3.51
  0
LINE
  8
0
 10
15.625
 20
3.51
 11
15.6244
 21
3.49775
  0
LINE
  8
0
 10
15.6244
 20
3.49775
 11
15.6226
 21
3.48561
  0
LINE
  8
0
 10
15.6226
 20
3.48561
 11
15.6196
 21
3.47371
  0
LINE
  8
0
 10
15.6196
 20
3.47371
 11
15.6155
 21
3.46216
  0
LINE
  8
0
 10
15.6155
 20
3.46216
 11
15.6102
 21
3.45108
  0
LINE
  8
0
 10
15.6102
 20
3.45108
 11
15.6039
 21
3.44055
  0
LINE
  8
0
 10
15.6039
 20
3.44055
 11
15.5966
 21
3.4307
  0
LINE
  8
0
 10
15.5966
 20
3.4307
 11
15.5884
 21
3.42161
  0
LINE
  8
0
 10
15.5884
 20
3.42161
 11
15.5793
 21
3.41337
  0
LINE
  8
0
 10
15.5793
 20
3.41337
 11
15.5694
 21
3.40607
  0
LINE
  8
0
 10
15.5694
 20
3.40607
 11
15.5589
 21
3.39976
  0
LINE
  8
0
 10
15.5589
 20
3.39976
 11
15.5478
 21
3.39452
  0
LINE
  8
0
 10
15.5478
 20
3.39452
 11
15.5363
 21
3.39038
  0
LINE
  8
0
 10
15.5363
 20
3.39038
 11
15.5244
 21
3.3874
  0
LINE
  8
0
 10
15.5244
 20
3.3874
 11
15.5123
 21
3.3856
  0
LINE
  8
0
 10
15.5123
 20
3.3856
 11
15.5
 21
3.385
  0
LINE
  8
0
 10
15.5
 20
3.385
 11
15.4877
 21
3.3856
  0
LINE
  8
0
 10
15.4877
 20
3.3856
 11
15.4756
 21
3.3874
  0
LINE
  8
0
 10
15.4756
 20
3.3874
 11
15.4637
 21
3.39038
  0
LINE
  8
0
 10
15.4637
 20
3.39038
 11
15.4522
 21
3.39452
  0
LINE
  8
0
 10
15.4522
 20
3.39452
 11
15.4411
 21
3.39976
  0
LINE
  8
0
 10
15.4411
 20
3.39976
 11
15.4306
 21
3.40607
  0
LINE
  8
0
 10
15.4306
 20
3.40607
 11
15.4207
 21
3.41337
  0
LINE
  8
0
 10
15.4207
 20
3.41337
 11
15.4116
 21
3.42161
  0
LINE
  8
0
 10
15.4116
 20
3.42161
 11
15.4034
 21
3.4307
  0
LINE
  8
0
 10
15.4034
 20
3.4307
 11
15.3961
 21
3.44055
  0
LINE
  8
0
 10
15.3961
 20
3.44055
 11
15.3898
 21
3.45108
  0
LINE
  8
0
 10
15.3898
 20
3.45108
 11
15.3845
 21
3.46216
  0
LINE
  8
0
 10
15.3845
 20
3.46216
 11
15.3804
 21
3.47371
  0
LINE
  8
0
 10
15.3804
 20
3.47371
 11
15.3774
 21
3.48561
  0
LINE
  8
0
 10
15.3774
 20
3.48561
 11
15.3756
 21
3.49775
  0
LINE
  8
0
 10
15.3756
 20
3.49775
 11
15.375
 21
3.51
  0
LINE
  8
0
 10
15.375
 20
3.51
 11
15.375
 21
5
  0
LINE
  8
0
 10
15.375
 20
5
 11
14
 21
5
  0
LINE
  8
0
 10
14
 20
5
 11
14
 21
0
  0
LINE
  8
0
 10
14
 20
6
 11
17
 21
6
  0
LINE
  8
0
 10
17
 20
6
 11
17
 21
11
  0
LINE
  8
0
 10
17
 20
11
 11
15.625
 21
11
  0
LINE
  8
0
 10
15.625
 20
11
 11
15.625
 21
9.51
  0
LINE
  8
0
 10
15.625
 20
9.51
 11
15.6244
 21
9.49775
  0
LINE
  8
0
 10
15.6244
 20
9.49775
 11
15.6226
 21
9.48561
  0
LINE
  8
0
 10
15.6226
 20
9.48561
 11
15.6196
 21
9.47371
  0
LINE
  8
0
 10
15.6196
 20
9.47371
 11
15.6155
 21
9.46216
  0
LINE
  8
0
 10
15.6155
 20
9.46216
 11
15.6102
 21
9.45108
  0
LINE
  8
0
 10
15.6102
 20
9.45108
 11
15.6039
 21
9.44055
  0
LINE
  8
0
 10
15.6039
 20
9.44055
 11
15.5966
 21
9.4307
  0
LINE
  8
0
 10
15.5966
 20
9.4307
 11
15.5884
 21
9.42161
  0
LINE
  8
0
 10
15.5884
 20
9.42161
 11
15.5793
 21
9.41337
  0
LINE
  8
0
 10
15.5793
 20
9.41337
 11
15.5694
 21
9.40607
  0
LINE
  8
0
 10
15.5694
 20
9.40607
 11
15.5589
 21
9.39976
  0
LINE
  8
0
 10
15.5589
 20
9.39976
 11
15.5478
 21
9.39452
  0
LINE
  8
0
 10
15.5478
 20
9.39452
 11
15.5363
 21
9.39038
  0
LINE
  8
0
 10
15.5363
 20
9.39038
 11
15.5244
 21
9.3874
  0
LINE
  8
0
 10
15.5244
 20
9.3874
 11
15.5123
 21
9.3856
  0
LINE
  8
0
 10
15.5123
 20
9.3856
 11
15.5
 21
9.385
  0
LINE
  8
0
 10
15.5
 20
9.385
 11
15.4877
 21
9.3856
  0
LINE
  8
0
 10
15.4877
 20
9.3856
 11
15.4756
 21
9.3874
  0
LINE
  8
0
 10
15.4756
 20
9.3874
 11
15.4637
 21
9.39038
  0
LINE
  8
0
 10
15.4637
 20
9.39038
 11
15.4522
 21
9.39452
  0
LINE
  8
0
 10
15.4522
 20
9.39452
 11
15.4411
 21
9.39976
  0
LINE
  8
0
 10
15.4411
 20
9.39976
 11
15.4306
 21
9.40607
  0
LINE
  8
0
 10
15.4306
 20
9.40607
 11
15.4207
 21
9.41337
  0
LINE
  8
0
 10
15.4207
 20
9.41337
 11
15.4116
 21
9.42161
  0
LINE
  8
0
 10
15.4116
 20
9.42161
 11
15.4034
 21
9.4307
  0
LINE
  8
0
 10
15.4034
 20
9.4307
 11
15.3961
 21
9.44055
  0
LINE
  8
0
 10
15.3961
 20
9.44055
 11
15.3898
 21
9.45108
  0
LINE
  8
0
 10
15.3898
 20
9.45108
 11
15.3845
 21
9.46216
  0
LINE
  8
0
 10
15.3845
 20
9.46216
 11
15.3804
 21
9.47371
  0
LINE
  8
0
 10
15.3804
 20
9.47371
 11
15.3774
 21
9.48561
  0
LINE
  8
0
 10
15.3774
 20
9.48561
 11
15.3756
 21
9.49775
  0
LINE
  8
0
 10
15.3756
 20
9.49775
 11
15.375
 21
9.51
  0
LINE
  8
0
 10
15.375
 20
9.51
 11
15.375
 21
11
  0
LINE
  8
0
 10
15.375
 20
11
 11
14
 21
11
  0
LINE
  8
0
 10
14
 20
11
 11
14
 21
6
  0
ENDSEC
  0
SECTION
  2
OBJECTS
  0
DICTIONARY
  0
ENDSEC
  0
EOF
